<?xml version="1.0" encoding="UTF-8" standalone="no"?>
<!-- Creator: CorelDRAW X5 -->

<svg
   xmlns:dc="http://purl.org/dc/elements/1.1/"
   xmlns:cc="http://creativecommons.org/ns#"
   xmlns:rdf="http://www.w3.org/1999/02/22-rdf-syntax-ns#"
   xmlns:svg="http://www.w3.org/2000/svg"
   xmlns="http://www.w3.org/2000/svg"
   xmlns:sodipodi="http://sodipodi.sourceforge.net/DTD/sodipodi-0.dtd"
   xmlns:inkscape="http://www.inkscape.org/namespaces/inkscape"
   xml:space="preserve"
   width="19.999897"
   height="29.999998"
   style="clip-rule:evenodd;fill-rule:evenodd;image-rendering:optimizeQuality;shape-rendering:geometricPrecision;text-rendering:geometricPrecision"
   viewBox="0 0 4.5487131 6.8181814"
   id="svg3467"
   version="1.1"
   inkscape:version="0.91 r"
   sodipodi:docname="grower_pin.svg"><metadata
     id="metadata3481"><rdf:RDF><cc:Work
         rdf:about=""><dc:format>image/svg+xml</dc:format><dc:type
           rdf:resource="http://purl.org/dc/dcmitype/StillImage" /><dc:title></dc:title></cc:Work></rdf:RDF></metadata><sodipodi:namedview
     pagecolor="#ffffff"
     bordercolor="#666666"
     borderopacity="1"
     objecttolerance="10"
     gridtolerance="10"
     guidetolerance="10"
     inkscape:pageopacity="0"
     inkscape:pageshadow="2"
     inkscape:window-width="1280"
     inkscape:window-height="972"
     id="namedview3479"
     showgrid="false"
     inkscape:zoom="1.791866"
     inkscape:cx="-82.395763"
     inkscape:cy="37.183353"
     inkscape:window-x="0"
     inkscape:window-y="0"
     inkscape:window-maximized="1"
     inkscape:current-layer="svg3467"
     fit-margin-top="0"
     fit-margin-left="0"
     fit-margin-right="0"
     fit-margin-bottom="0" /><defs
     id="defs3469"><style
       type="text/css"
       id="style3471"><![CDATA[
    .fil1 {fill:#FEFEFE}
    .fil0 {fill:#00CC00;fill-rule:nonzero}
   ]]></style></defs><g
     id="Layer_x0020_1"
     transform="matrix(0.07336634,0,0,0.07182216,0,-0.00251453)"><metadata
       id="CorelCorpID_0Corel-Layer" /><path
       class="fil0"
       d="M 31,95 C 39,63 62,48 62,32 62,16 54,0 31,0 7,0 0,16 0,32 0,48 24,64 31,95 Z"
       id="path3475"
       inkscape:connector-curvature="0"
       style="fill:#00cc00;fill-rule:nonzero" /><path
       class="fil1"
       d="m 31,28 c 0,6 1,5 1,7 0,1 -1,3 -2,5 -4,-3 -1,-15 -13,-13 -2,0 -5,1 -6,2 4,1 4,3 6,6 2,4 1,6 7,6 1,0 2,0 2,-3 0,-1 -3,-4 -3,-6 2,1 4,5 6,9 1,1 0,3 0,5 -3,0 -5,1 -7,2 -2,1 -4,2 -4,5 8,4 19,4 25,0 0,-4 -6,-7 -10,-8 0,-4 1,-8 2,-12 1,-2 8,-11 10,-11 -5,6 -7,9 -8,11 -4,6 10,6 12,-3 1,-5 -2,-6 2,-11 1,-2 0,-6 -2,-8 -4,4 -19,7 -19,17 z"
       id="path3477"
       inkscape:connector-curvature="0"
       style="fill:#fefefe" /></g></svg>