<?xml version="1.0" encoding="UTF-8" standalone="no"?>
<!-- Creator: CorelDRAW X5 -->

<svg
   xmlns:dc="http://purl.org/dc/elements/1.1/"
   xmlns:cc="http://creativecommons.org/ns#"
   xmlns:rdf="http://www.w3.org/1999/02/22-rdf-syntax-ns#"
   xmlns:svg="http://www.w3.org/2000/svg"
   xmlns="http://www.w3.org/2000/svg"
   xmlns:sodipodi="http://sodipodi.sourceforge.net/DTD/sodipodi-0.dtd"
   xmlns:inkscape="http://www.inkscape.org/namespaces/inkscape"
   xml:space="preserve"
   width="20.000002"
   height="30.000006"
   style="clip-rule:evenodd;fill-rule:evenodd;image-rendering:optimizeQuality;shape-rendering:geometricPrecision;text-rendering:geometricPrecision"
   viewBox="0 0 10.97473 16.50718"
   id="svg2"
   version="1.1"
   inkscape:version="0.91 r"
   sodipodi:docname="preparer_pin.svg"><metadata
     id="metadata18"><rdf:RDF><cc:Work
         rdf:about=""><dc:format>image/svg+xml</dc:format><dc:type
           rdf:resource="http://purl.org/dc/dcmitype/StillImage" /><dc:title></dc:title></cc:Work></rdf:RDF></metadata><sodipodi:namedview
     pagecolor="#ffffff"
     bordercolor="#666666"
     borderopacity="1"
     objecttolerance="10"
     gridtolerance="10"
     guidetolerance="10"
     inkscape:pageopacity="0"
     inkscape:pageshadow="2"
     inkscape:window-width="1280"
     inkscape:window-height="972"
     id="namedview16"
     showgrid="false"
     fit-margin-top="0"
     fit-margin-left="0"
     fit-margin-right="0"
     fit-margin-bottom="0"
     inkscape:zoom="24.966662"
     inkscape:cx="10.000001"
     inkscape:cy="15.000003"
     inkscape:window-x="0"
     inkscape:window-y="0"
     inkscape:window-maximized="1"
     inkscape:current-layer="svg2" /><defs
     id="defs4"><style
       type="text/css"
       id="style6"><![CDATA[
    .fil1 {fill:#FEFEFE}
    .fil0 {fill:blue;fill-rule:nonzero}
   ]]></style></defs><g
     id="Layer_x0020_1"
     transform="matrix(0.0723999,0,0,0.07177034,-0.01502776,5.2474897e-7)"><metadata
       id="CorelCorpID_0Corel-Layer" /><path
       class="fil0"
       d="M 76,230 C 95,153 152,115 152,77 152,39 133,0 76,0 19,0 0,38 0,77 c 0,38 57,77 76,153 z"
       id="path10"
       inkscape:connector-curvature="0"
       style="fill:#0000ff;fill-rule:nonzero" /><path
       class="fil1"
       d="M 72,48 C 72,40 68,29 66,29 l 0,15 -3,0 0,-17 c 0,-1 -2,-1 -2,-1 l 0,18 -3,0 0,-18 c -1,0 -2,0 -3,0 l 0,18 -3,0 0,-17 c 0,0 -2,0 -2,0 l 0,17 -3,0 0,-15 c -2,0 -5,13 -5,20 0,8 6,17 9,22 2,3 1,11 1,16 0,16 0,31 0,48 3,1 9,1 12,0 0,-16 0,-32 0,-48 0,-8 -1,-13 1,-16 3,-5 6,-13 5,-21 z"
       id="path12"
       inkscape:connector-curvature="0"
       style="fill:#fefefe" /><path
       class="fil1"
       d="M 101,64 100,28 C 100,8 80,9 80,9 c 0,2 0,7 0,8 0,19 0,32 0,51 l 0,66 c 2,1 10,1 13,0 0,-4 0,-18 0,-21 0,-6 -1,-39 2,-44 1,-2 6,-2 6,-5 z"
       id="path14"
       inkscape:connector-curvature="0"
       style="fill:#fefefe" /></g></svg>